<mxfile host="app.diagrams.net" agent="Mozilla/5.0 (Macintosh; Intel Mac OS X 10_15_7) AppleWebKit/537.36 (KHTML, like Gecko) Chrome/132.0.0.0 Safari/537.36" version="28.1.0">
  <diagram name="Схема 4" id="uQaChf9CdVxY_DSxpon-">
    <mxGraphModel dx="2407" dy="1173" grid="1" gridSize="10" guides="1" tooltips="1" connect="1" arrows="1" fold="1" page="1" pageScale="1" pageWidth="1400" pageHeight="1000" math="0" shadow="0">
      <root>
        <mxCell id="0" />
        <mxCell id="1" parent="0" />
        <mxCell id="client" value="Клиент" style="rounded=1;whiteSpace=wrap;html=1;" parent="1" vertex="1">
          <mxGeometry x="-140" y="300" width="100" height="60" as="geometry" />
        </mxCell>
        <mxCell id="api-gateway" value="API Gateway" style="rounded=1;whiteSpace=wrap;html=1;fillColor=#d5e8d4;" parent="1" vertex="1">
          <mxGeometry x="10" y="300" width="120" height="60" as="geometry" />
        </mxCell>
        <mxCell id="consul-cluster" value="Consul Cluster" style="swimlane;fontStyle=1;align=center;verticalAlign=top;childLayout=stackLayout;horizontal=1;startSize=26;fillColor=#fff2cc;" parent="1" vertex="1">
          <mxGeometry x="190" y="140" width="780" height="120" as="geometry" />
        </mxCell>
        <mxCell id="consul1" value="Consul 1" style="rounded=1;whiteSpace=wrap;html=1;" parent="consul-cluster" vertex="1">
          <mxGeometry y="26" width="260" height="94" as="geometry" />
        </mxCell>
        <mxCell id="consul2" value="Consul 2" style="rounded=1;whiteSpace=wrap;html=1;" parent="consul-cluster" vertex="1">
          <mxGeometry x="260" y="26" width="260" height="94" as="geometry" />
        </mxCell>
        <mxCell id="consul3" value="Consul 3" style="rounded=1;whiteSpace=wrap;html=1;" parent="consul-cluster" vertex="1">
          <mxGeometry x="520" y="26" width="260" height="94" as="geometry" />
        </mxCell>
        <mxCell id="app-instances" value="Экземпляры приложения" style="swimlane;fontStyle=1;align=center;verticalAlign=top;childLayout=stackLayout;horizontal=1;startSize=26;fillColor=#dae8fc;" parent="1" vertex="1">
          <mxGeometry x="350" y="400" width="450" height="120" as="geometry" />
        </mxCell>
        <mxCell id="app1" value="pymongo-api 1" style="rounded=1;whiteSpace=wrap;html=1;" parent="app-instances" vertex="1">
          <mxGeometry y="26" width="150" height="94" as="geometry" />
        </mxCell>
        <mxCell id="app2" value="pymongo-api 2" style="rounded=1;whiteSpace=wrap;html=1;" parent="app-instances" vertex="1">
          <mxGeometry x="150" y="26" width="150" height="94" as="geometry" />
        </mxCell>
        <mxCell id="app3" value="pymongo-api 3" style="rounded=1;whiteSpace=wrap;html=1;" parent="app-instances" vertex="1">
          <mxGeometry x="300" y="26" width="150" height="94" as="geometry" />
        </mxCell>
        <mxCell id="redis" value="Redis Cache" style="shape=cylinder3;whiteSpace=wrap;html=1;fillColor=#FFA500;" parent="1" vertex="1">
          <mxGeometry x="900" y="430" width="80" height="60" as="geometry" />
        </mxCell>
        <mxCell id="mongos-router" value="Mongos Router" style="rounded=1;whiteSpace=wrap;html=1;fillColor=#f8cecc;" parent="1" vertex="1">
          <mxGeometry x="400" y="650" width="120" height="60" as="geometry" />
        </mxCell>
        <mxCell id="config-server" value="Config Server" style="shape=cylinder3;whiteSpace=wrap;html=1;fillColor=#f5f5f5;" parent="1" vertex="1">
          <mxGeometry x="640" y="650" width="80" height="60" as="geometry" />
        </mxCell>
        <mxCell id="replica-set1" value="Replica Set 1" style="swimlane;fontStyle=1;align=center;verticalAlign=top;childLayout=stackLayout;horizontal=1;startSize=26;fillColor=#e1d5e7;" parent="1" vertex="1">
          <mxGeometry x="200" y="750" width="200" height="150" as="geometry" />
        </mxCell>
        <mxCell id="shard1-primary" value="Primary" style="shape=cylinder3;whiteSpace=wrap;html=1;" parent="replica-set1" vertex="1">
          <mxGeometry y="30" width="180" height="40" as="geometry" />
        </mxCell>
        <mxCell id="shard1-secondary1" value="Secondary 1" style="shape=cylinder3;whiteSpace=wrap;html=1;" parent="replica-set1" vertex="1">
          <mxGeometry y="70" width="180" height="40" as="geometry" />
        </mxCell>
        <mxCell id="shard1-secondary2" value="Secondary 2" style="shape=cylinder3;whiteSpace=wrap;html=1;" parent="replica-set1" vertex="1">
          <mxGeometry y="110" width="180" height="40" as="geometry" />
        </mxCell>
        <mxCell id="replica-set2" value="Replica Set 2" style="swimlane;fontStyle=1;align=center;verticalAlign=top;childLayout=stackLayout;horizontal=1;startSize=26;fillColor=#e1d5e7;" parent="1" vertex="1">
          <mxGeometry x="500" y="750" width="200" height="150" as="geometry" />
        </mxCell>
        <mxCell id="shard2-primary" value="Primary" style="shape=cylinder3;whiteSpace=wrap;html=1;" parent="replica-set2" vertex="1">
          <mxGeometry y="30" width="180" height="40" as="geometry" />
        </mxCell>
        <mxCell id="shard2-secondary1" value="Secondary 1" style="shape=cylinder3;whiteSpace=wrap;html=1;" parent="replica-set2" vertex="1">
          <mxGeometry y="70" width="180" height="40" as="geometry" />
        </mxCell>
        <mxCell id="shard2-secondary2" value="Secondary 2" style="shape=cylinder3;whiteSpace=wrap;html=1;" parent="replica-set2" vertex="1">
          <mxGeometry y="110" width="180" height="40" as="geometry" />
        </mxCell>
        <mxCell id="client-to-gateway" style="edgeStyle=orthogonalEdgeStyle;rounded=0;orthogonalLoop=1;jettySize=auto;html=1;" parent="1" source="client" target="api-gateway" edge="1">
          <mxGeometry relative="1" as="geometry" />
        </mxCell>
        <mxCell id="gateway-to-app2" style="edgeStyle=orthogonalEdgeStyle;rounded=0;orthogonalLoop=1;jettySize=auto;html=1;entryX=0;entryY=0;entryDx=0;entryDy=0;" parent="1" edge="1">
          <mxGeometry relative="1" as="geometry">
            <mxPoint x="70.00000000000023" y="370" as="sourcePoint" />
            <mxPoint x="350" y="410" as="targetPoint" />
            <Array as="points">
              <mxPoint x="70" y="400" />
              <mxPoint x="280" y="400" />
              <mxPoint x="280" y="410" />
            </Array>
          </mxGeometry>
        </mxCell>
        <mxCell id="app1-to-mongos" style="edgeStyle=orthogonalEdgeStyle;rounded=0;orthogonalLoop=1;jettySize=auto;html=1;entryX=0.25;entryY=0;entryDx=0;entryDy=0;" parent="1" source="app1" target="mongos-router" edge="1">
          <mxGeometry relative="1" as="geometry" />
        </mxCell>
        <mxCell id="app2-to-mongos" style="edgeStyle=orthogonalEdgeStyle;rounded=0;orthogonalLoop=1;jettySize=auto;html=1;entryX=0.67;entryY=-0.047;entryDx=0;entryDy=0;entryPerimeter=0;" parent="1" source="app2" target="mongos-router" edge="1">
          <mxGeometry relative="1" as="geometry" />
        </mxCell>
        <mxCell id="mongos-to-config" style="edgeStyle=orthogonalEdgeStyle;rounded=0;orthogonalLoop=1;jettySize=auto;html=1;" parent="1" source="mongos-router" target="config-server" edge="1">
          <mxGeometry relative="1" as="geometry" />
        </mxCell>
        <mxCell id="mongos-to-shard1" style="edgeStyle=orthogonalEdgeStyle;rounded=0;orthogonalLoop=1;jettySize=auto;html=1;entryX=0.451;entryY=-0.025;entryDx=0;entryDy=0;entryPerimeter=0;" parent="1" source="mongos-router" target="replica-set1" edge="1">
          <mxGeometry relative="1" as="geometry" />
        </mxCell>
        <mxCell id="mongos-to-shard2" style="edgeStyle=orthogonalEdgeStyle;rounded=0;orthogonalLoop=1;jettySize=auto;html=1;" parent="1" source="mongos-router" edge="1">
          <mxGeometry relative="1" as="geometry">
            <mxPoint x="590" y="750" as="targetPoint" />
          </mxGeometry>
        </mxCell>
        <mxCell id="shard1-replication1" style="edgeStyle=orthogonalEdgeStyle;rounded=0;orthogonalLoop=1;jettySize=auto;html=1;" parent="1" source="shard1-primary" target="shard1-secondary1" edge="1">
          <mxGeometry relative="1" as="geometry" />
        </mxCell>
        <mxCell id="shard1-replication2" style="edgeStyle=orthogonalEdgeStyle;rounded=0;orthogonalLoop=1;jettySize=auto;html=1;" parent="1" source="shard1-secondary1" target="shard1-secondary2" edge="1">
          <mxGeometry relative="1" as="geometry" />
        </mxCell>
        <mxCell id="shard2-replication1" style="edgeStyle=orthogonalEdgeStyle;rounded=0;orthogonalLoop=1;jettySize=auto;html=1;" parent="1" source="shard2-primary" target="shard2-secondary1" edge="1">
          <mxGeometry relative="1" as="geometry" />
        </mxCell>
        <mxCell id="shard2-replication2" style="edgeStyle=orthogonalEdgeStyle;rounded=0;orthogonalLoop=1;jettySize=auto;html=1;" parent="1" source="shard2-secondary1" target="shard2-secondary2" edge="1">
          <mxGeometry relative="1" as="geometry" />
        </mxCell>
        <mxCell id="legend" value="&lt;b&gt;Легенда:&lt;/b&gt;&lt;div&gt;Сплошные линии - основные соединения&lt;div&gt;Пунктирные - сервис-дискавери&lt;/div&gt;" style="text;html=1;strokeColor=none;fillColor=none;align=left;verticalAlign=middle;whiteSpace=wrap;rounded=0;fontSize=12;" parent="1" vertex="1">
          <mxGeometry x="50" y="50" width="200" height="40" as="geometry" />
        </mxCell>
        <mxCell id="title" value="Архитектура с горизонтальным масштабированием" style="text;html=1;strokeColor=none;fillColor=none;align=center;verticalAlign=middle;whiteSpace=wrap;rounded=0;fontSize=16;fontStyle=1;" parent="1" vertex="1">
          <mxGeometry x="300" y="50" width="400" height="30" as="geometry" />
        </mxCell>
        <mxCell id="OEm_tFBEJCeadBTnVXsm-2" style="edgeStyle=orthogonalEdgeStyle;rounded=0;orthogonalLoop=1;jettySize=auto;html=1;entryX=0.836;entryY=-0.017;entryDx=0;entryDy=0;entryPerimeter=0;exitX=0.567;exitY=1.009;exitDx=0;exitDy=0;exitPerimeter=0;" edge="1" parent="1" source="app3" target="mongos-router">
          <mxGeometry relative="1" as="geometry">
            <mxPoint x="655" y="570" as="sourcePoint" />
            <mxPoint x="560" y="697" as="targetPoint" />
            <Array as="points">
              <mxPoint x="735" y="600" />
              <mxPoint x="500" y="600" />
            </Array>
          </mxGeometry>
        </mxCell>
        <mxCell id="OEm_tFBEJCeadBTnVXsm-4" value="" style="endArrow=classic;html=1;rounded=0;entryX=0;entryY=0.5;entryDx=0;entryDy=0;entryPerimeter=0;exitX=1;exitY=0.5;exitDx=0;exitDy=0;" edge="1" parent="1" source="app-instances" target="redis">
          <mxGeometry width="50" height="50" relative="1" as="geometry">
            <mxPoint x="660" y="530" as="sourcePoint" />
            <mxPoint x="710" y="480" as="targetPoint" />
          </mxGeometry>
        </mxCell>
        <mxCell id="OEm_tFBEJCeadBTnVXsm-5" value="" style="endArrow=classic;html=1;rounded=0;exitX=0.5;exitY=0;exitDx=0;exitDy=0;entryX=-0.002;entryY=0.139;entryDx=0;entryDy=0;entryPerimeter=0;" edge="1" parent="1" source="api-gateway" target="consul-cluster">
          <mxGeometry width="50" height="50" relative="1" as="geometry">
            <mxPoint x="450" y="400" as="sourcePoint" />
            <mxPoint x="500" y="350" as="targetPoint" />
            <Array as="points">
              <mxPoint x="70" y="157" />
            </Array>
          </mxGeometry>
        </mxCell>
        <mxCell id="OEm_tFBEJCeadBTnVXsm-9" value="" style="endArrow=classic;html=1;rounded=0;exitX=1;exitY=0.75;exitDx=0;exitDy=0;" edge="1" parent="1" source="app3">
          <mxGeometry width="50" height="50" relative="1" as="geometry">
            <mxPoint x="560" y="500" as="sourcePoint" />
            <mxPoint x="880" y="260" as="targetPoint" />
            <Array as="points">
              <mxPoint x="880" y="496" />
            </Array>
          </mxGeometry>
        </mxCell>
        <mxCell id="OEm_tFBEJCeadBTnVXsm-12" style="edgeStyle=orthogonalEdgeStyle;rounded=0;orthogonalLoop=1;jettySize=auto;html=1;dashed=1;exitX=0.5;exitY=1;exitDx=0;exitDy=0;" edge="1" parent="1" source="consul2" target="app2">
          <mxGeometry relative="1" as="geometry">
            <mxPoint x="640" y="260" as="sourcePoint" />
            <mxPoint x="920" y="340" as="targetPoint" />
          </mxGeometry>
        </mxCell>
        <mxCell id="OEm_tFBEJCeadBTnVXsm-13" style="edgeStyle=orthogonalEdgeStyle;rounded=0;orthogonalLoop=1;jettySize=auto;html=1;dashed=1;" edge="1" parent="1">
          <mxGeometry relative="1" as="geometry">
            <mxPoint x="860" y="260" as="sourcePoint" />
            <mxPoint x="800" y="476" as="targetPoint" />
            <Array as="points">
              <mxPoint x="860" y="310" />
              <mxPoint x="860" y="476" />
            </Array>
          </mxGeometry>
        </mxCell>
        <mxCell id="OEm_tFBEJCeadBTnVXsm-14" style="edgeStyle=orthogonalEdgeStyle;rounded=0;orthogonalLoop=1;jettySize=auto;html=1;dashed=1;" edge="1" parent="1">
          <mxGeometry relative="1" as="geometry">
            <mxPoint x="220" y="260" as="sourcePoint" />
            <mxPoint x="355" y="466" as="targetPoint" />
            <Array as="points">
              <mxPoint x="220" y="300" />
              <mxPoint x="220" y="466" />
            </Array>
          </mxGeometry>
        </mxCell>
      </root>
    </mxGraphModel>
  </diagram>
</mxfile>
